<svg width="142" height="40" viewBox="0 0 142 40" fill="none" xmlns="http://www.w3.org/2000/svg" preserveAspectRatio="xMidYMid meet" color="#000">
    <path d="M60.489 5.355c0-.61.493-1.133 1.07-1.133h.245c.467 0 .797.262 1.015.61l6.862 10.928 6.862-10.928c.22-.378.577-.61 1.015-.61h.248c.576 0 1.07.523 1.07 1.133v18.282c0 .639-.494 1.162-1.07 1.162-.604 0-1.097-.552-1.097-1.162V8.466l-6.149 9.561c-.246.379-.521.581-.905.581-.385 0-.686-.204-.933-.58l-6.12-9.533v15.17c0 .64-.467 1.134-1.07 1.134-.576 0-1.042-.494-1.042-1.133V5.356h-.001zm38.317 9.185v-.059c0-4.62-3.183-8.4-7.575-8.4-4.391 0-7.521 3.722-7.521 8.342v.058c0 4.62 3.183 8.4 7.574 8.4 4.392 0 7.522-3.72 7.522-8.341zm-17.347 0v-.059c0-5.61 3.98-10.521 9.825-10.521 5.847 0 9.772 4.854 9.772 10.463v.058c0 5.61-3.98 10.522-9.827 10.522-5.844 0-9.77-4.854-9.77-10.463zm27.31 9.387l-7.41-18.107a1.11 1.11 0 01-.11-.523c0-.581.493-1.135 1.097-1.135.549 0 .934.379 1.125.873l6.642 16.857 6.669-16.916c.193-.406.576-.814 1.07-.814.604 0 1.07.523 1.07 1.106 0 .174-.028.32-.083.464l-7.438 18.195c-.246.58-.631.96-1.262.96h-.11c-.628 0-1.039-.378-1.26-.96zm12.546-18.601c0-.64.494-1.162 1.07-1.162.604 0 1.097.523 1.097 1.162v18.31c0 .64-.493 1.163-1.097 1.163-.576 0-1.07-.523-1.07-1.162V5.326zm6.835 0c0-.64.494-1.162 1.07-1.162.603 0 1.097.523 1.097 1.162v17.207h9.963c.549 0 .989.494.989 1.075 0 .58-.439 1.047-.989 1.047h-11.06c-.576 0-1.07-.523-1.07-1.162V5.326zM.402 6.43c0-1.25.932-2.239 2.113-2.239h.466c.905 0 1.538.494 1.921 1.162l5.105 8.808 5.132-8.837c.439-.755 1.042-1.133 1.893-1.133h.467c1.18 0 2.113.99 2.113 2.239v16.16c0 1.25-.934 2.238-2.113 2.238-1.153 0-2.086-1.018-2.086-2.238V12.445l-3.705 6.045c-.439.698-.989 1.133-1.756 1.133s-1.317-.435-1.756-1.133l-3.651-5.957v10.113c0 1.222-.932 2.18-2.086 2.18-1.153 0-2.059-.96-2.059-2.18V6.43h.002zm32.944 9.709l-2.662-6.714-2.662 6.714h5.324zm-11.884 5.638L28.16 5.763c.466-1.104 1.318-1.772 2.47-1.772h.246c1.154 0 1.976.668 2.442 1.772l6.697 16.014c.138.32.22.61.22.902 0 1.19-.879 2.15-2.003 2.15-.99 0-1.646-.61-2.032-1.54l-1.29-3.198h-8.452l-1.345 3.342c-.356.872-1.07 1.395-1.949 1.395-1.097 0-1.948-.93-1.948-2.093 0-.319.11-.639.247-.958zm20.662.725c-.466-.348-.796-.987-.796-1.684 0-1.163.879-2.064 1.976-2.064.549 0 .934.204 1.208.406 1.455 1.135 3.047 1.83 4.913 1.83 1.729 0 2.773-.726 2.773-1.917v-.058c0-1.133-.66-1.716-3.87-2.587-3.87-1.047-6.369-2.18-6.369-6.22v-.058c0-3.691 2.8-6.132 6.725-6.132 2.334 0 4.365.64 6.093 1.802.468.29.934.901.934 1.772 0 1.163-.879 2.063-1.976 2.063-.413 0-.741-.116-1.07-.319-1.4-.872-2.717-1.366-4.035-1.366-1.62 0-2.47.785-2.47 1.774v.059c0 1.336.825 1.773 4.146 2.673 3.897 1.075 6.093 2.557 6.093 6.103v.058c0 4.04-2.908 6.307-7.053 6.307-2.528 0-5.08-.814-7.221-2.442zm40.032 6.971c0-.439.348-.787.787-.787h.163c.379 0 .602.185.817.46l3.035 3.984v-3.688a.777.777 0 011.554 0v5.69a.781.781 0 01-.787.787h-.052c-.378 0-.602-.185-.817-.46l-3.146-4.127v3.831a.777.777 0 01-1.554 0v-5.69zm8.479 5.619v-5.579c0-.438.348-.786.787-.786h3.963c.388 0 .706.317.706.705a.698.698 0 01-.706.695h-3.188v1.45h2.727c.388 0 .705.317.705.705a.698.698 0 01-.705.695h-2.726v1.502h3.239c.388 0 .706.317.706.705a.698.698 0 01-.706.695h-4.015a.781.781 0 01-.787-.787zm6.937-2.769v-.021c0-2.033 1.582-3.698 3.749-3.698 1.083 0 1.799.244 2.443.694a.777.777 0 01-.45 1.41.775.775 0 01-.481-.164c-.429-.306-.888-.49-1.563-.49-1.145 0-2.054 1.011-2.054 2.227v.02c0 1.308.9 2.268 2.165 2.268.572 0 1.083-.142 1.481-.429v-1.02H101.8a.676.676 0 01-.684-.676c0-.379.306-.684.684-.684h1.799c.438 0 .786.348.786.786v1.737c0 .46-.173.777-.552 1.002a4.754 4.754 0 01-2.503.715c-2.226 0-3.758-1.562-3.758-3.677zm8.417 0v-.021c0-2.033 1.604-3.698 3.811-3.698 2.208 0 3.791 1.644 3.791 3.678v.021c0 2.033-1.604 3.699-3.812 3.699-2.206-.002-3.79-1.646-3.79-3.68zm5.957 0v-.021c0-1.227-.899-2.248-2.165-2.248-1.267 0-2.146 1.002-2.146 2.227v.02c0 1.226.9 2.249 2.165 2.249 1.268 0 2.146-1.002 2.146-2.227zm3.135 0v-.021c0-2.033 1.533-3.698 3.729-3.698 1.073 0 1.798.286 2.39.725a.786.786 0 01.306.623.767.767 0 01-.776.765.812.812 0 01-.47-.153c-.438-.327-.9-.512-1.461-.512-1.206 0-2.073 1.002-2.073 2.227v.021c0 1.225.848 2.248 2.073 2.248.663 0 1.104-.204 1.552-.561a.737.737 0 01.469-.174c.398 0 .735.327.735.725a.742.742 0 01-.265.562c-.645.562-1.4.898-2.545.898-2.1.002-3.664-1.621-3.664-3.675zm8.337-2.871c0-.439.348-.787.786-.787.439 0 .787.348.787.787v5.7a.781.781 0 01-.787.786.781.781 0 01-.786-.786v-5.7zm3.453 2.871v-.021c0-2.033 1.604-3.698 3.812-3.698 2.207 0 3.79 1.644 3.79 3.678v.021c0 2.033-1.604 3.699-3.811 3.699-2.208-.002-3.791-1.646-3.791-3.68zm5.956 0v-.021c0-1.227-.9-2.248-2.165-2.248-1.267 0-2.146 1.002-2.146 2.227v.02c0 1.226.9 2.249 2.165 2.249 1.267 0 2.146-1.002 2.146-2.227zm3.26 2.8a.738.738 0 01-.296-.593c0-.407.326-.725.736-.725a.76.76 0 01.45.143c.542.398 1.134.644 1.829.644.644 0 1.032-.256 1.032-.675v-.021c0-.398-.246-.602-1.44-.91-1.441-.367-2.371-.765-2.371-2.186v-.021c0-1.298 1.042-2.156 2.504-2.156.869 0 1.624.225 2.267.633a.72.72 0 01.348.623.724.724 0 01-.736.725.758.758 0 01-.399-.112c-.521-.306-1.011-.48-1.501-.48-.603 0-.92.275-.92.623v.02c0 .47.306.624 1.543.941 1.45.379 2.267.9 2.267 2.146v.021c0 1.42-1.083 2.217-2.625 2.217a4.618 4.618 0 01-2.688-.857z" fill="#000"></path>
</svg>