<svg viewBox="0 0 45 34" xmlns="http://www.w3.org/2000/svg"><path d="M45 23.675c0 1.424-.268 2.76-.805 4.006a11.241 11.241 0 01-2.147 3.293 9.585 9.585 0 01-3.176 2.225A9.617 9.617 0 0134.98 34c-3.46 0-6.247-1.202-8.365-3.605-2.117-2.403-3.176-5.533-3.176-9.39s.477-7.12 1.432-9.79c.954-2.67 2.34-4.821 4.16-6.453 1.819-1.632 4.026-2.834 6.62-3.605C38.246.386 41.213 0 44.553 0v6.23c-2.147 0-3.967.238-5.458.712-1.49.475-2.713 1.128-3.668 1.959-1.013.77-1.759 1.66-2.236 2.67a9.731 9.731 0 00-.895 3.026c.12-.178.448-.356.984-.534a5.365 5.365 0 011.7-.267c1.55 0 2.937.267 4.16.8 1.223.535 2.267 1.247 3.131 2.137a9.406 9.406 0 012.013 3.16A10.27 10.27 0 0145 23.675zm-23.44 0c0 1.424-.268 2.76-.805 4.006a11.241 11.241 0 01-2.147 3.293 9.585 9.585 0 01-3.176 2.225 9.617 9.617 0 01-3.891.801c-3.46 0-6.248-1.202-8.365-3.605S0 24.862 0 21.005s.477-7.12 1.431-9.79c.955-2.67 2.326-4.821 4.116-6.453 1.789-1.632 3.996-2.834 6.62-3.605C14.791.386 17.773 0 21.113 0v6.23c-2.147 0-3.966.238-5.457.712-1.491.475-2.743 1.128-3.757 1.959-.955.77-1.67 1.66-2.148 2.67a9.731 9.731 0 00-.894 3.026c.12-.178.432-.356.94-.534.506-.178 1.088-.267 1.744-.267 1.55 0 2.937.267 4.16.8 1.222.535 2.266 1.247 3.131 2.137a9.406 9.406 0 012.013 3.16 10.27 10.27 0 01.716 3.782z" fill="#ffe200"/></svg>
